<svg width="21" height="25" viewBox="0 0 21 25" fill="none" xmlns="http://www.w3.org/2000/svg">
<path d="M9.94863 7.86505V11.195M9.96863 3.42505C6.28863 3.42505 3.30863 6.40505 3.30863 10.085V12.185C3.30863 12.865 3.02863 13.885 2.67863 14.465L1.40863 16.585C0.628628 17.895 1.16863 19.355 2.60863 19.835C7.38991 21.425 12.5573 21.425 17.3386 19.835C17.6541 19.7298 17.9419 19.555 18.1808 19.3236C18.4197 19.0922 18.6035 18.8101 18.7187 18.4981C18.8339 18.1861 18.8775 17.8522 18.8464 17.5211C18.8152 17.19 18.71 16.8701 18.5386 16.585L17.2686 14.465C16.9186 13.885 16.6386 12.855 16.6386 12.185V10.085C16.6286 6.42505 13.6286 3.42505 9.96863 3.42505Z" stroke="black" stroke-width="1.5" stroke-miterlimit="10" stroke-linecap="round"/>
<path d="M13.2787 20.2454C13.2787 22.0754 11.7787 23.5754 9.94865 23.5754C9.03865 23.5754 8.19865 23.1954 7.59865 22.5954C6.99865 21.9954 6.61865 21.1554 6.61865 20.2454" stroke="black" stroke-width="1.5" stroke-miterlimit="10"/>
<circle cx="14.9487" cy="6.42505" r="6" fill="#FF445E"/>
<path d="M12.8487 3.11505H17.2487V4.11505H13.8987V6.10505C14.1687 5.74505 14.7587 5.44505 15.4087 5.44505C17.1987 5.44505 17.7487 6.77505 17.7487 7.87505C17.7487 9.32505 16.9187 10.425 15.2287 10.425C13.7287 10.425 12.8587 9.59505 12.6887 8.45505H13.7987C13.9487 9.07505 14.4687 9.47505 15.2387 9.47505C16.2187 9.47505 16.6587 8.80505 16.6587 7.90505C16.6587 6.95505 16.1887 6.41505 15.2387 6.41505C14.5687 6.41505 14.1187 6.78505 13.9287 7.32505H12.8487V3.11505Z" fill="white"/>
</svg>
