<svg width="11" height="10" viewBox="0 0 11 10" fill="none" xmlns="http://www.w3.org/2000/svg">
<g clip-path="url(#clip0_6_3315)">
<path d="M5.05122 5.59609C5.22194 5.59609 5.39099 5.56247 5.54871 5.49714C5.70643 5.43181 5.84974 5.33605 5.97046 5.21533C6.09118 5.09462 6.18693 4.95131 6.25226 4.79358C6.3176 4.63586 6.35122 4.46681 6.35122 4.29609C6.35122 4.12538 6.3176 3.95633 6.25226 3.79861C6.18693 3.64088 6.09118 3.49757 5.97046 3.37685C5.84974 3.25614 5.70643 3.16038 5.54871 3.09505C5.39099 3.02972 5.22194 2.99609 5.05122 2.99609C4.70644 2.99609 4.37578 3.13306 4.13198 3.37685C3.88818 3.62065 3.75122 3.95131 3.75122 4.29609C3.75122 4.64088 3.88818 4.97154 4.13198 5.21533C4.37578 5.45913 4.70644 5.59609 5.05122 5.59609Z" stroke="#80899A"/>
<path d="M1.55964 3.53718C2.38048 -0.0711579 7.72631 -0.0669911 8.54298 3.54134C9.02215 5.65801 7.70548 7.44968 6.55131 8.55801C6.14801 8.94698 5.60954 9.16434 5.04923 9.16434C4.48891 9.16434 3.95045 8.94698 3.54714 8.55801C2.39714 7.44968 1.08048 5.65384 1.55964 3.53718Z" stroke="#80899A"/>
</g>
<defs>
<clipPath id="clip0_6_3315">
<rect width="10" height="10" fill="white" transform="translate(0.0512695)"/>
</clipPath>
</defs>
</svg>
