<svg width="20" height="20" viewBox="0 0 20 20" fill="none" xmlns="http://www.w3.org/2000/svg">
<g clip-path="url(#clip0_6_3307)">
<path d="M18.3334 18.3337L16.6667 16.667M9.58341 17.5003C10.623 17.5003 11.6525 17.2956 12.613 16.8977C13.5735 16.4999 14.4462 15.9167 15.1813 15.1816C15.9165 14.4465 16.4996 13.5737 16.8975 12.6132C17.2953 11.6527 17.5001 10.6233 17.5001 9.58366C17.5001 8.54403 17.2953 7.51457 16.8975 6.55408C16.4996 5.59359 15.9165 4.72086 15.1813 3.98573C14.4462 3.2506 13.5735 2.66746 12.613 2.26961C11.6525 1.87176 10.623 1.66699 9.58341 1.66699C7.48378 1.66699 5.47015 2.50107 3.98549 3.98573C2.50082 5.47039 1.66675 7.48403 1.66675 9.58366C1.66675 11.6833 2.50082 13.6969 3.98549 15.1816C5.47015 16.6662 7.48378 17.5003 9.58341 17.5003Z" stroke="#80899A" stroke-width="1.5" stroke-linecap="round" stroke-linejoin="round"/>
</g>
<defs>
<clipPath id="clip0_6_3307">
<rect width="20" height="20" fill="white"/>
</clipPath>
</defs>
</svg>
